
<svg fill="#ffffff" xmlns="http://www.w3.org/2000/svg" viewBox="0 0 34.9 5.1" style="enable-background:new 0 0 34.9 5.1" xml:space="preserve">
<path d="m18.5 4.4.9-.9-.3-.3-.4.4v-.9h-.5v.9l-.3-.4-.3.3.9.9zm-.9.7v-.5h1.8v.5h-1.8zm-1.8-.9c-.1 0-.2 0-.3-.1-.1-.1-.1-.2-.1-.3V.6c0-.1 0-.2.1-.3s.2-.1.3-.1h1.6l1.4 1.4v.7h-.5v-.5h-1.1V.7h-1.4v3.2h1.4v.3h-1.4zm0-.5V.5v3.2zM2.5 5.2v-.6h1.9V.7H2.5V.1h1.9c.2 0 .3.1.4.2.1.1.2.2.2.4v3.9c0 .2-.1.3-.2.4-.1.1-.2.2-.4.2H2.5zm-.6-1.1-.4-.4.7-.7H0v-.6h2.3l-.7-.7.3-.4 1.4 1.4-1.4 1.4zM32 3.9V1.4l-.8.8-.4-.5L32.4.1 34 1.7l-.4.5-.8-.8v2.5H32zm-1.5 1.3c-.2 0-.3-.1-.4-.2-.1-.1-.2-.3-.2-.4v-.9h.6v.9h3.8v-.9h.6v.9c0 .2-.1.3-.2.4-.1.1-.3.2-.4.2h-3.8zM9.4 4.1l-.3-.3 1.2-1.2-1.2-1.2.3-.3 1.5 1.5-1.5 1.5zM24.3 4.1l-.3-.3 1.2-1.2L24 1.4l.3-.3 1.5 1.5-1.5 1.5z"/></svg>